<svg xmlns="http://www.w3.org/2000/svg" id="449425" x="0" y="0" version="1.1" viewBox="0 0 52 52" xml:space="preserve"><path fill="#0b0a0a" d="M49.121 20.314l-16.98-16.98c-1.14-1.13-3.11-1.13-4.25 0l-14.16 14.16h15.28c2.757 0 5 2.243 5 5v17.171l15.11-15.101a3.012 3.012 0 0 0 0-4.25zm-16.52-5.31c-.69.69-1.61 1.07-2.59 1.07-.97 0-1.89-.38-2.58-1.07a3.663 3.663 0 0 1 0-5.18c1.38-1.38 3.79-1.39 5.17 0a3.663 3.663 0 0 1 0 5.18zm10.03 10.02a3.672 3.672 0 0 1-5.18 0 3.637 3.637 0 0 1-1.07-2.59c0-.97.38-1.89 1.07-2.58 1.39-1.39 3.8-1.39 5.18 0a3.651 3.651 0 0 1 0 5.17z" class="color231f20 svgShape"></path><path fill="#cb3c3c" d="M29.011 19.494H5.001c-1.66 0-3 1.35-3 3v24.02c0 1.65 1.34 3 3 3h24.01c1.66 0 3-1.35 3-3v-24.02c0-1.65-1.34-3-3-3zm-19.1 11.58c-2.01 0-3.66-1.64-3.66-3.66 0-2.02 1.65-3.66 3.66-3.66a3.67 3.67 0 0 1 3.67 3.66 3.67 3.67 0 0 1-3.67 3.66zm7.1 7.09a3.67 3.67 0 0 1-3.67-3.66 3.67 3.67 0 0 1 3.67-3.66c2.01 0 3.66 1.64 3.66 3.66 0 2.02-1.65 3.66-3.66 3.66zm7.09 7.09c-2.02 0-3.66-1.64-3.66-3.66s1.64-3.66 3.66-3.66c2.02 0 3.66 1.64 3.66 3.66s-1.64 3.66-3.66 3.66z" class="color3c90cb svgShape"></path></svg>