<svg xmlns="http://www.w3.org/2000/svg" viewBox="0 0 53 53" id="rocket"><path fill="#f9b938" d="M12.85 34.319c-4.772 1.494-7.71 5.838-7.34 11.59.054.845.72 1.527 1.565 1.583 3.757.248 6.923-.907 9.083-3.067 1.154-1.154 2.01-2.603 2.53-4.269L12.85 34.32z"></path><path fill="#e5a320" d="m17.763 42.297-2.237-2.237a6.194 6.194 0 0 0-4.346-1.812c-2.049-.01-4.048.98-5.137 2.92 1.02-3.355 3.464-5.8 6.81-6.85l5.84 5.84a11.833 11.833 0 0 1-.93 2.139z"></path><path fill="#f7f363" d="M14.266 35.735c-2.461.77-3.976 3.01-3.786 5.977a.87.87 0 0 0 .808.817c1.937.127 3.57-.468 4.684-1.582a5.323 5.323 0 0 0 1.305-2.202l-3.011-3.01z"></path><path fill="#f7e839" d="m16.18 40.713-.654-.653a6.194 6.194 0 0 0-4.346-1.812c.654-1.207 1.733-2.089 3.089-2.514l3.01 3.01a5.34 5.34 0 0 1-1.1 1.97z"></path><path fill="#fc6559" d="M12.289 25.854c-.495-.02-1-.01-1.495.03A14.99 14.99 0 0 0 5.36 27.3c-.763.366-1.644.198-2.248-.406l-.01-.01a2.004 2.004 0 0 1-.376-2.356 18.731 18.731 0 0 1 3.604-5.029 19.264 19.264 0 0 1 11.463-5.504c.673-.06 1.336-.109 2.01-.109-3.218 3.376-5.782 7.425-7.514 11.968zm16.205 24.442a2.017 2.017 0 0 1-2.356-.377l-.02-.02a1.979 1.979 0 0 1-.406-2.247 14.875 14.875 0 0 0 1.406-5.444c.05-.505.06-1.01.04-1.525 4.484-1.692 8.543-4.227 11.958-7.483-.01.683-.04 1.366-.129 2.029-.346 3.395-1.594 6.682-3.732 9.473-1.841 2.396-4.118 4.277-6.761 5.594z"></path><path fill="#f05543" d="M19.802 13.886c-3.217 3.376-5.78 7.425-7.513 11.968a9.8 9.8 0 0 0-1.079.01c-.139 0-.287.01-.416.02a37.86 37.86 0 0 1 1.512-3.59c1.161-2.403-1.267-4.913-3.68-3.775-1.239.584-2.37 1.233-3.158 1.92.268-.326.565-.643.862-.94a19.264 19.264 0 0 1 11.463-5.504c.673-.06 1.336-.109 2.01-.109zm12.77 33.677c.288-.326.565-.663.842-1.02.475-.62.925-1.445 1.338-2.355 1.088-2.4-1.432-4.786-3.796-3.621a38.933 38.933 0 0 1-3.838 1.64c.02-.138.03-.286.03-.425.03-.366.02-.732.01-1.099 4.484-1.692 8.543-4.227 11.958-7.483-.01.683-.04 1.366-.129 2.029-.346 3.395-1.594 6.682-3.732 9.473a20.477 20.477 0 0 1-2.683 2.861z"></path><path fill="#e4e3ff" d="M39.809 32.546c-4.811 4.811-10.988 8.177-17.858 9.721-1.09.238-2.257-.118-3.06-.92L11.647 34.1c-.812-.812-1.159-1.99-.911-3.07 3.85-17.075 18.492-28.549 36.429-28.549 1.851.01 3.346 1.505 3.336 3.336.02 10.335-3.791 19.829-10.691 26.728z"></path><path fill="#fff" d="M14.398 27.401a31.311 31.311 0 0 1 2.66-6.267 1.05 1.05 0 1 1 1.83 1.03 29.142 29.142 0 0 0-2.48 5.844 1.05 1.05 0 0 1-2.01-.607zm5.608-9.088a1.05 1.05 0 0 1-.07-1.405c.41-.503.837-.993 1.277-1.466a1.05 1.05 0 0 1 1.483-.053c.432.366.449 1.06.055 1.483-.41.441-.807.895-1.188 1.363a1.05 1.05 0 0 1-1.557.078z" opacity=".6"></path><path fill="#d0d0f7" d="M39.809 32.546c-4.811 4.811-10.988 8.177-17.858 9.721-1.09.238-2.257-.118-3.06-.92l-2.078-2.08c.802.803 1.97 1.159 3.059.921 6.87-1.544 13.047-4.91 17.858-9.72 6.9-6.9 10.71-16.394 10.691-26.728 0-.377-.06-.733-.178-1.07 1.326.456 2.267 1.693 2.257 3.148.02 10.335-3.791 19.829-10.691 26.728z"></path><path fill="#fc6559" d="M11.354 28.74c-.22.757-.443 1.512-.62 2.292-.247 1.079.1 2.257.912 3.069l7.246 7.246c.802.802 1.97 1.158 3.059.92a38.222 38.222 0 0 0 2.323-.606l-12.92-12.92z"></path><path fill="#e24b40" d="M24.277 41.663c-.772.218-1.534.426-2.326.604-1.09.238-2.257-.118-3.06-.92l-2.147-2.148c.801.801 1.97 1.158 3.058.92a44.427 44.427 0 0 0 2.327-.604l2.148 2.148z"></path><path fill="#fc6559" d="M48.818 17.397A39.654 39.654 0 0 0 50.5 5.818c.01-1.83-1.485-3.326-3.336-3.336-4.05 0-7.918.614-11.545 1.716l13.2 13.2z"></path><path fill="#e24b40" d="m48.817 17.4-2.02-2.019A39.586 39.586 0 0 0 48.48 3.8c0-.396-.069-.762-.198-1.109A3.294 3.294 0 0 1 50.5 5.818c.01 4.03-.574 7.92-1.683 11.583z"></path><path fill="#474646" d="M39.58 25.399c-3.298 3.298-8.648 3.298-11.957-.011a8.449 8.449 0 0 1 0-11.946c3.31-3.31 8.66-3.31 11.957-.011a8.455 8.455 0 0 1 0 11.968z"></path><path fill="#fff" d="M29.449 14.216a.35.35 0 0 1 .043-.532 7.055 7.055 0 0 1 6.009-1.086.349.349 0 1 1-.184.675 6.364 6.364 0 0 0-5.417.979.35.35 0 0 1-.451-.036zm7.711-.107a.35.35 0 0 1 .447-.536c.359.247.695.528 1 .833.137.136.14.362.004.498a.359.359 0 0 1-.543-.06 7.165 7.165 0 0 0-.859-.694.34.34 0 0 1-.049-.041z" opacity=".3"></path><path fill="#2d2c2c" d="M39.571 25.4c-3.296 3.296-8.642 3.296-11.948-.01a8.385 8.385 0 0 1-2.435-6.633 8.28 8.28 0 0 0 2.455 5.721 8.451 8.451 0 0 0 11.968.01 8.413 8.413 0 0 0 2.435-5.167 8.355 8.355 0 0 1-2.475 6.078z"></path><path fill="#a2a2f9" d="M37.067 22.875a4.892 4.892 0 0 1-6.93 0 4.642 4.642 0 0 1-1.03-1.544 4.152 4.152 0 0 1-.356-1.287c-.069-.466-.05-.94.03-1.396.158-.99.614-1.94 1.366-2.693 1.91-1.91 5.01-1.92 6.92-.01.208.208.396.436.554.674.277.376.485.801.624 1.237.148.426.237.871.247 1.316a4.766 4.766 0 0 1-.465 2.327c-.228.505-.554.97-.96 1.376z"></path><path fill="#fff" d="m38.245 17.856-9.494 2.188c-.069-.466-.05-.94.03-1.396l8.84-2.03c.277.377.485.802.624 1.238zM38.027 21.499l-7.504 1.722a6.412 6.412 0 0 1-.386-.346 4.642 4.642 0 0 1-1.03-1.544l9.385-2.159a4.766 4.766 0 0 1-.465 2.327z" opacity=".3"></path><path fill="#5e5eef" d="M38.354 20.558a4.791 4.791 0 0 0-1.426-3.405c-1.91-1.91-5.009-1.9-6.92.01a4.828 4.828 0 0 0-1.286 2.316 4.872 4.872 0 0 1 1.425-3.524c1.91-1.91 5.01-1.92 6.92-.01a4.833 4.833 0 0 1 1.287 4.613z"></path></svg>